<?xml version="1.0" encoding="utf-8"?>
<!-- Generator: Adobe Illustrator 16.0.0, SVG Export Plug-In . SVG Version: 6.00 Build 0)  -->
<!DOCTYPE svg PUBLIC "-//W3C//DTD SVG 1.1//EN" "http://www.w3.org/Graphics/SVG/1.1/DTD/svg11.dtd">
<svg version="1.1" id="Warstwa_1" xmlns="http://www.w3.org/2000/svg" xmlns:xlink="http://www.w3.org/1999/xlink" x="0px" y="0px"
	 width="16px" height="16px" viewBox="0 0 16 16" enable-background="new 0 0 16 16" xml:space="preserve">
<path id="mouse" d="M12,11c0,2.209-1.791,4-4,4s-4-1.791-4-4V5c0-2.209,1.791-4,4-4s4,1.791,4,4V11z M8,0C5.239,0,3,2.239,3,5v6
	c0,2.762,2.239,5,5,5c2.762,0,5-2.238,5-5V5C13,2.239,10.762,0,8,0z"/>
<path id="scroll" d="M8,3c0.276,0,0.5,0.224,0.5,0.5v2C8.5,5.776,8.276,6,8,6S7.5,5.776,7.5,5.5v-2C7.5,3.224,7.724,3,8,3z"/>
</svg>
