<?xml version="1.0" encoding="utf-8"?>
<!DOCTYPE svg PUBLIC "-//W3C//DTD SVG 1.1//EN" "http://www.w3.org/Graphics/SVG/1.1/DTD/svg11.dtd">
<svg version="1.1" id="Warstwa_1" xmlns="http://www.w3.org/2000/svg" xmlns:xlink="http://www.w3.org/1999/xlink" x="0px"
	y="0px" width="265.479px" height="145.086px" viewBox="0 0 265.479 145.086" enable-background="new 0 0 265.479 145.086"
	xml:space="preserve">
	<polygon fill="#0E3240" points="167.1,33.906 167.1,33.916 150.51,50.506 108.699,92.316 55.71,145.307 55.71,145.316 
	55.699,145.307 55.689,145.297 0,89.605 55.71,33.906 " />
	<polygon fill="#0E3240"
		points="265.479,55.955 209.778,111.662 98.385,111.662 98.385,111.656 209.778,0.26 209.784,0.26 " />
	<polygon fill="#3C8C03" stroke="#3C8C03" stroke-width="7" stroke-linecap="round" stroke-linejoin="round"
		stroke-miterlimit="10" points="
	150.692,50.682 108.884,92.49 108.879,92.484 108.873,92.49 70.605,54.217 70.594,106.254 65.588,106.26 65.588,47.131 
	70.605,47.131 70.605,47.14 70.617,47.131 108.879,85.408 147.146,47.131 " />
	<polygon fill="#3C8C03" stroke="#3C8C03" stroke-width="7" stroke-linecap="round" stroke-linejoin="round"
		stroke-miterlimit="10" points="
	235.175,59.04 231.628,62.593 193.372,100.848 193.366,100.842 193.36,100.848 151.553,59.04 155.099,55.486 193.366,93.766 
	228.075,59.04 211.126,42.079 195.701,57.512 192.154,53.96 211.12,34.993 211.126,34.998 231.628,55.493 " />
	<polygon fill="#F28705" points="200.489,0.286 168.96,31.835 166.89,33.906 150.42,50.406 108.64,92.256 58.189,142.785 
	55.689,145.297 55.67,145.307 55.699,145.307 55.71,145.316 55.71,145.307 65.14,145.346 66.97,143.516 67.71,142.785 
	98.819,111.666 101.64,108.846 121.22,89.246 202.31,7.976 209.899,0.375 209.949,0.326 " />
	<polygon fill="#F18721" points="202.45,7.978 121.216,89.25 202.437,7.978 " />
</svg>