<?xml version="1.0" encoding="utf-8"?>
<!-- Generator: Adobe Illustrator 16.0.0, SVG Export Plug-In . SVG Version: 6.00 Build 0)  -->
<!DOCTYPE svg PUBLIC "-//W3C//DTD SVG 1.1//EN" "http://www.w3.org/Graphics/SVG/1.1/DTD/svg11.dtd">
<svg version="1.1" id="Warstwa_1" xmlns="http://www.w3.org/2000/svg" xmlns:xlink="http://www.w3.org/1999/xlink" x="0px"
	y="0px" width="80px" height="54px" viewBox="0 0 80 54" enable-background="new 0 0 80 54" xml:space="preserve">
	<path id="letter_g" fill="#0E3240" stroke="#3C8C03" stroke-width="0.7" d="M72.811,5.438l-15.79,8.393
	c-0.666,0.354-1.263,0.792-1.795,1.326c-0.532,0.535-1.007,1.117-1.415,1.747c-0.41,0.638-0.764,1.303-1.061,2.003
	c-0.301,0.701-0.541,1.396-0.733,2.088c-0.188,0.697-0.329,1.372-0.428,2.03c-0.093,0.655-0.146,1.25-0.155,1.781l-0.266,15.582
	c-0.016,0.987,0.057,1.831,0.209,2.532c0.156,0.693,0.371,1.268,0.647,1.719c0.271,0.445,0.593,0.776,0.948,1.007
	c0.361,0.22,0.742,0.357,1.145,0.411c0.398,0.047,0.802,0.027,1.213-0.063c0.411-0.097,0.795-0.236,1.152-0.428l14.013-7.447
	c0.275-0.148,0.541-0.36,0.779-0.633c0.239-0.273,0.452-0.588,0.628-0.939c0.18-0.347,0.322-0.729,0.428-1.133
	c0.105-0.413,0.162-0.822,0.169-1.23l0.22-12.972c0.006-0.4-0.036-0.749-0.13-1.038c-0.093-0.298-0.226-0.527-0.396-0.703
	c-0.167-0.169-0.372-0.271-0.606-0.299c-0.234-0.029-0.498,0.038-0.773,0.185l-12.26,6.517l-0.1,5.793l10.336-5.493l-0.125,7.218
	L56.58,39.815c-0.496,0.264-0.878,0.265-1.146,0.003c-0.27-0.261-0.391-0.762-0.379-1.496L55.32,22.78
	c0.012-0.775,0.155-1.441,0.431-1.984c0.276-0.536,0.665-0.944,1.173-1.213l15.79-8.393L72.811,5.438z" />
	<path id="letter_m" fill="#0E3240" stroke="#3C8C03" stroke-width="0.7" d="M36.546,14.678c-0.325-0.111-0.646-0.151-0.957-0.116
	c-0.523,0.06-0.944,0.319-1.244,0.783L22.527,34.227L11.483,7.564c-0.138-0.335-0.304-0.628-0.507-0.903
	c-0.203-0.266-0.428-0.499-0.682-0.701C10.045,5.769,9.791,5.616,9.521,5.5C9.452,5.47,9.385,5.444,9.318,5.422
	c-0.203-0.068-0.405-0.11-0.61-0.125C8.15,5.288,7.695,5.486,7.345,5.884C6.994,6.282,6.813,6.819,6.803,7.48L6.305,36.763
	l5.019,1.708l0.321-18.904l8.635,20.994c0.213,0.531,0.505,0.984,0.885,1.351c0.374,0.365,0.777,0.618,1.219,0.769
	c0.449,0.152,0.87,0.181,1.272,0.08c0.395-0.104,0.708-0.35,0.928-0.734l9.209-14.919l-0.321,18.904l5.062,1.724l0.498-29.283
	c0.011-0.66-0.156-1.317-0.497-1.949c-0.333-0.63-0.775-1.134-1.313-1.498C36.995,14.863,36.769,14.755,36.546,14.678z" />
</svg>